<svg viewBox="0 0 128 128" xml:space="preserve" xmlns="http://www.w3.org/2000/svg"><g clip-rule="evenodd"><path fill="none" d="M0 0h128v128H0z"/><path d="M117 73.204 103.24 64 117 54.796v18.408zM69.5 112.22V86.568L93.348 70.62l19.248 12.872L69.5 112.22zM64 77.012 44.548 64 64 50.988 83.456 64 64 77.012zm-5.5 35.208L15.404 83.492 34.656 70.62 58.5 86.568v25.652zM11 54.796 24.764 64 11 73.204V54.796zM58.5 15.78v25.652L34.656 57.384 15.404 44.508 58.5 15.78zm11 0 43.096 28.728-19.248 12.876L69.5 41.432V15.78zm58.452 28.004c-.012-.084-.032-.16-.044-.24-.028-.156-.056-.312-.096-.46-.024-.092-.06-.18-.088-.268a6.75 6.75 0 0 0-.14-.4 2.739 2.739 0 0 0-.124-.268 2.84 2.84 0 0 0-.188-.364c-.048-.088-.104-.172-.156-.256a5.4 5.4 0 0 0-.696-.872c-.072-.072-.14-.148-.216-.212a9.118 9.118 0 0 0-.312-.264c-.084-.064-.164-.128-.248-.188-.032-.02-.06-.048-.092-.068l-58.5-39a5.502 5.502 0 0 0-6.104 0l-58.496 39c-.032.02-.06.048-.092.068-.088.06-.168.124-.248.188a4.94 4.94 0 0 0-.312.264c-.076.064-.148.14-.22.212a3.835 3.835 0 0 0-.272.3 3.536 3.536 0 0 0-.192.236c-.08.108-.156.22-.228.336a4.437 4.437 0 0 0-.348.62c-.04.084-.084.176-.12.268-.056.132-.1.264-.144.4-.028.088-.06.176-.084.268-.04.148-.068.304-.096.46-.016.08-.036.156-.044.24A5.245 5.245 0 0 0 0 44.5v39c0 .24.02.48.052.72.008.076.028.156.044.236.028.156.056.308.096.46.024.092.056.18.084.268.044.132.088.268.144.404.036.088.08.176.12.264.06.124.12.244.188.368.052.084.104.168.16.252a4.863 4.863 0 0 0 .42.572c.084.1.176.204.272.296a4.94 4.94 0 0 0 .532.48c.08.064.16.128.248.188.032.02.06.048.092.068l58.496 39a5.497 5.497 0 0 0 6.104 0l58.5-39c.032-.02.06-.048.092-.068.084-.06.164-.124.248-.188.104-.084.208-.172.312-.264.076-.068.144-.14.216-.216a4.83 4.83 0 0 0 .276-.296c.064-.076.128-.156.188-.24.084-.108.16-.216.232-.332.052-.084.108-.168.156-.252.072-.124.132-.244.188-.368.044-.088.088-.176.124-.264.052-.136.096-.272.14-.404.028-.088.064-.176.088-.268a5.86 5.86 0 0 0 .096-.46c.012-.08.032-.16.044-.236.032-.24.048-.48.048-.72v-39a5.25 5.25 0 0 0-.048-.716z" fill="#0B0B0A" fill-rule="evenodd"/></g></svg>