<svg width="44" height="64" fill="none" xmlns="http://www.w3.org/2000/svg"><path d="M32.667 42.667c5.89 0 10.666-4.776 10.666-10.667s-4.775-10.667-10.666-10.667S22 26.11 22 32s4.776 10.667 10.667 10.667Z" fill="#19BCFE"/><path fill-rule="evenodd" clip-rule="evenodd" d="M11.333 64A10.667 10.667 0 0 0 22 53.333V42.667H11.333a10.667 10.667 0 1 0 0 21.333Z" fill="#09CF83"/><path fill-rule="evenodd" clip-rule="evenodd" d="M11.333 42.667H22V21.333H11.333a10.667 10.667 0 1 0 0 21.334Z" fill="#A259FF"/><path fill-rule="evenodd" clip-rule="evenodd" d="M11.333 21.333H22V0H11.333a10.667 10.667 0 1 0 0 21.333Z" fill="#F24E1E"/><path fill-rule="evenodd" clip-rule="evenodd" d="M32.667 21.333H22V0h10.667a10.667 10.667 0 0 1 0 21.333Z" fill="#FF7262"/></svg>